{"title":"The.Telephone.1988.720p.x264.DrSapirsteinFanEdit.reducedsize-che","uid":9735639,"size":889125542,"categoryP":"video","categoryS":"hd___movies","magnet":"?xt=urn:btih:925b15366a8f5be7ef3a8dbca07064f42c931965&amp;dn=The.Telephone.1988.720p.x264.DrSapirsteinFanEdit.reducedsize-che&amp;tr=udp%3A%2F%2Ftracker.openbittorrent.com%3A80&amp;tr=udp%3A%2F%2Fopen.demonii.com%3A1337&amp;tr=udp%3A%2F%2Ftracker.coppersurfer.tk%3A6969&amp;tr=udp%3A%2F%2Fexodus.desync.com%3A6969","seeders":1,"leechers":13,"uploader":"cherplock","files":2,"time":1394440055,"description":"This is a reduced size version of Dr. Sapirstein's Fan Edit of The Telephone (1988), starring Whoopi Goldberg and directed by Rip Torn.\n\n &lt;a href=&quot;\nhttps://thepiratebay.se/torrent/9673689/THE_TELEPHONE_%28Whoopi_Goldberg%29_Remastered_%5B1988%5D_DVD-R&quot; rel=&quot;nofollow&quot; target=&quot;_NEW&quot;&gt;\nhttps://thepiratebay.se/torrent/9673689/THE_TELEPHONE_%28Whoopi_Goldberg%29_Remastered_%5B1988%5D_DVD-R&lt;/a&gt;\n\n\nA crazy out of work actress, Vashti Blue, spends all her time in her small apartment with her pet owl and her telephone, which she uses to try and solve all her problems with life.\n &lt;a href=&quot;\nhttp://i.imgur.com/S0JTUhA.jpg&quot; rel=&quot;nofollow&quot; target=&quot;_NEW&quot;&gt;\nhttp://i.imgur.com/S0JTUhA.jpg&lt;/a&gt; &lt;a href=&quot;\nhttp://i.imgur.com/NEkDKQB.jpg&quot; rel=&quot;nofollow&quot; target=&quot;_NEW&quot;&gt;\nhttp://i.imgur.com/NEkDKQB.jpg&lt;/a&gt; &lt;a href=&quot;\nhttp://i.imgur.com/ySITFHr.jpg&quot; rel=&quot;nofollow&quot; target=&quot;_NEW&quot;&gt;\nhttp://i.imgur.com/ySITFHr.jpg&lt;/a&gt; &lt;a href=&quot;\nhttp://i.imgur.com/zvaIY88.jpg&quot; rel=&quot;nofollow&quot; target=&quot;_NEW&quot;&gt;\nhttp://i.imgur.com/zvaIY88.jpg&lt;/a&gt; &lt;a href=&quot;\nhttp://i.imgur.com/8ryBA97.jpg&quot; rel=&quot;nofollow&quot; target=&quot;_NEW&quot;&gt;\nhttp://i.imgur.com/8ryBA97.jpg&lt;/a&gt;\n\n\nFormat                                   : MPEG-4\nFormat profile                           : Base Media / Version 2\nCodec ID                                 : mp42\nFile size                                : 848 MiB\nDuration                                 : 1h 18mn\nOverall bit rate mode                    : Variable\nOverall bit rate                         : 1 506 Kbps\nMovie name                               : Telephone, The\nEncoded date                             : UTC 2014-03-10 04:10:56\nTagged date                              : UTC 2014-03-10 04:30:16\nWriting application                      : HandBrake 0.9.9 2013052900\n\nVideo\nID                                       : 1\nFormat                                   : AVC\nFormat/Info                              : Advanced Video Codec\nFormat profile                           : &lt;a class=&quot;__cf_email__&quot; href=&quot;/cdn-cgi/l/email-protection&quot; data-cfemail=&quot;3a775b53547a760e140a&quot;&gt;[email&amp;#160;protected]&lt;/a&gt;&lt;script cf-hash='f9e31' type=&quot;text/javascript&quot;&gt;\n/* &lt;![CDATA[ */!function(){try{var t=&quot;currentScript&quot;in document?document.currentScript:function(){for(var t=document.getElementsByTagName(&quot;script&quot;),e=t.length;e--;)if(t[e].getAttribute(&quot;cf-hash&quot;))return t[e]}();if(t&amp;&amp;t.previousSibling){var e,r,n,i,c=t.previousSibling,a=c.getAttribute(&quot;data-cfemail&quot;);if(a){for(e=&quot;&quot;,r=parseInt(a.substr(0,2),16),n=2;a.length-n;n+=2)i=parseInt(a.substr(n,2),16)^r,e+=String.fromCharCode(i);e=document.createTextNode(e),c.parentNode.replaceChild(e,c)}}}catch(u){}}();/* ]]&gt; */&lt;/script&gt;\nFormat settings, CABAC                   : Yes\nFormat settings, ReFrames                : 4 frames\nCodec ID                                 : avc1\nCodec ID/Info                            : Advanced Video Coding\nDuration                                 : 1h 18mn\nBit rate mode                            : Variable\nBit rate                                 : 1 339 Kbps\nWidth                                    : 720 pixels\nHeight                                   : 480 pixels\nDisplay aspect ratio                     : 3:2\nFrame rate mode                          : Variable\nFrame rate                               : 29.970 fps\nMinimum frame rate                       : 15.152 fps\nMaximum frame rate                       : 30.303 fps\nStandard                                 : NTSC\nColor space                              : YUV\nChroma subsampling                       : 4:2:0\nBit depth                                : 8 bits\nScan type                                : Progressive\nBits/(Pixel*Frame)                       : 0.129\nStream size                              : 754 MiB (89%)\nWriting library                          : x264 core 130 r2273 b3065e6\nEncoding settings                        : cabac=1 / ref=1 / deblock=1:0:0 / analyse=0x1:0x111 / me=hex / subme=2 / psy=1 / psy_rd=1.00:0.00 / mixed_ref=0 / me_range=16 / chroma_me=1 / trellis=0 / 8x8dct=0 / cqm=0 / deadzone=21,11 / fast_pskip=1 / chroma_qp_offset=0 / threads=6 / lookahead_threads=2 / sliced_threads=0 / nr=0 / decimate=1 / interlaced=0 / bluray_compat=0 / constrained_intra=0 / bframes=3 / b_pyramid=2 / b_adapt=1 / b_bias=0 / direct=1 / weightb=1 / open_gop=0 / weightp=1 / keyint=300 / keyint_min=30 / scenecut=40 / intra_refresh=0 / rc_lookahead=10 / rc=crf / mbtree=1 / crf=17.0 / qcomp=0.60 / qpmin=0 / qpmax=69 / qpstep=4 / vbv_maxrate=20000 / vbv_bufsize=25000 / crf_max=0.0 / nal_hrd=none / ip_ratio=1.40 / aq=1:1.00\nEncoded date                             : UTC 2014-03-10 04:10:56\nTagged date                              : UTC 2014-03-10 04:30:16\nColor primaries                          : BT.601 NTSC\nTransfer characteristics                 : BT.709\nMatrix coefficients                      : BT.601\n\nAudio\nID                                       : 2\nFormat                                   : AAC\nFormat/Info                              : Advanced Audio Codec\nFormat profile                           : LC\nCodec ID                                 : 40\nDuration                                 : 1h 18mn\nBit rate mode                            : Variable\nBit rate                                 : 160 Kbps\nMaximum bit rate                         : 334 Kbps\nChannel count                            : 2 channels\nChannel positions                        : Front: L R\nSampling rate                            : 48.0 KHz\nCompression mode                         : Lossy\nDelay relative to video                  : 100ms\nStream size                              : 90.1 MiB (11%)","torrent":{"xt":"urn:btih:925b15366a8f5be7ef3a8dbca07064f42c931965","amp;dn":"The.Telephone.1988.720p.x264.DrSapirsteinFanEdit.reducedsize-che","amp;tr":["udp%3A%2F%2Ftracker.openbittorrent.com%3A80","udp%3A%2F%2Fopen.demonii.com%3A1337","udp%3A%2F%2Ftracker.coppersurfer.tk%3A6969","udp%3A%2F%2Fexodus.desync.com%3A6969"],"infoHash":"925b15366a8f5be7ef3a8dbca07064f42c931965","infoHashBuffer":{"type":"Buffer","data":[146,91,21,54,106,143,91,231,239,58,141,188,160,112,100,244,44,147,25,101]},"announce":[],"urlList":[]}}